<svg width="1440" height="615" viewBox="0 0 1440 615" fill="none" xmlns="http://www.w3.org/2000/svg">
<path d="M0 0H1440V309.459H749H0V0Z" fill="#0072FF"/>
<path fill-rule="evenodd" clip-rule="evenodd" d="M0 403.471L60 424.037C120 445.581 240 487.691 360 502.381C480 516.091 600 502.381 720 467.126C840 431.871 960 375.072 1080 396.616C1200 417.181 1320 516.091 1380 565.056L1440 615V234.052H1380C1320 234.052 1200 234.052 1080 234.052C960 234.052 840 234.052 720 234.052C600 234.052 480 234.052 360 234.052C240 234.052 120 234.052 60 234.052H0V403.471Z" fill="#0072FF"/>
</svg>
