<svg width="73" height="64" viewBox="0 0 73 64" fill="none" xmlns="http://www.w3.org/2000/svg">
<rect width="73" height="64" rx="5" fill="#0072FF"/>
<path d="M34.75 32.7562C34.9062 32.9625 35.2969 32.8938 35.2188 32.6188L32.5625 20.7937C32.0156 18.8687 30.4531 18.3188 28.5 18.25H14.4375C14.2813 18.25 14.125 18.3875 14.125 18.525C14.125 18.6625 14.2031 18.8 14.3594 18.8687C24.3594 21.1375 31.3125 26.4312 34.75 32.7562Z" fill="white"/>
<path d="M52.1719 18.25H46.5469C45.8437 18.25 45.2188 18.6625 44.9063 19.2125L36.625 38.875C34.75 34.5437 31.3906 30.625 26.625 27.6C26 27.1875 25.0625 27.7375 25.2969 28.425L30.9219 47.0563C31.1562 47.95 32.0937 48.5 33.1094 48.5H39.2812C40.2187 48.5 41 48.0188 41.3906 47.2625L53.8125 20.3813C54.2031 19.35 53.3437 18.25 52.1719 18.25Z" fill="white"/>
</svg>
